<svg width="541" height="475" xmlns="http://www.w3.org/2000/svg" xmlns:xlink="http://www.w3.org/1999/xlink" xml:space="preserve" overflow="hidden"><defs><clipPath id="clip0"><rect x="867" y="1495" width="541" height="475"/></clipPath></defs><g clip-path="url(#clip0)" transform="translate(-867 -1495)"><path d="M1138.23 1522.56C1094.12 1522.56 1058.36 1558.33 1058.36 1602.44 1058.36 1646.55 1094.12 1682.31 1138.23 1682.31 1182.35 1682.31 1218.11 1646.55 1218.11 1602.44 1218.11 1558.33 1182.35 1522.56 1138.23 1522.56ZM1138.23 1495.94C1197.05 1495.94 1244.73 1543.62 1244.73 1602.44 1244.73 1661.26 1197.05 1708.94 1138.23 1708.94 1079.41 1708.94 1031.73 1661.26 1031.73 1602.44 1031.73 1543.62 1079.41 1495.94 1138.23 1495.94Z" fill="#FFFFFF" fill-rule="evenodd"/><path d="M1186.02 1560.94 1203.73 1566.08 1199.35 1583.91 1164.39 1603.99 1162.62 1612.74C1158.57 1622.26 1149.1 1628.94 1138.06 1628.94 1123.33 1628.94 1111.4 1617.06 1111.4 1602.42 1111.4 1600.59 1111.58 1598.8 1111.94 1597.07L1111.94 1597.05 1095.73 1584.35 1097.6 1568.93 1112.23 1563.51 1129.84 1577.31 1132.68 1576.43C1134.42 1576.08 1136.21 1575.89 1138.06 1575.89 1141.74 1575.89 1145.24 1576.64 1148.43 1577.98L1152.52 1580.18Z" fill="#FFFFFF" fill-rule="evenodd"/><path d="M1120.73 1704.94 1155.73 1704.94 1155.73 1915.94 1120.73 1915.94Z" fill="#FFFFFF" fill-rule="evenodd"/><path d="M973.732 1969.94 1005.39 1915.94 1270.07 1915.94 1301.73 1969.94Z" fill="#FFFFFF" fill-rule="evenodd"/><path d="M904.731 1600.44C904.731 1592.98 910.705 1586.94 918.075 1586.94L1035.39 1586.94C1042.75 1586.94 1048.73 1592.98 1048.73 1600.44L1048.73 1600.44C1048.73 1607.89 1042.75 1613.94 1035.39 1613.94L918.075 1613.94C910.705 1613.94 904.731 1607.89 904.731 1600.44Z" fill="#FFFFFF" fill-rule="evenodd"/><path d="M974.232 1589.94 1080.73 1776.94 1050.58 1776.94 974.232 1642.88 897.882 1776.94 867.732 1776.94Z" fill="#FFFFFF" fill-rule="evenodd"/><path d="M867.732 1797.94 1080.73 1797.94 1080.38 1799.1C1062.89 1841.32 1021.95 1870.94 974.232 1870.94 926.514 1870.94 885.573 1841.32 868.084 1799.1Z" fill="#CE404A" fill-rule="evenodd"/><path d="M0.234315 13.5601C0.234315 6.10434 6.20861 0.0599971 13.578 0.0599971L130.891 0.0599971C138.26 0.0599971 144.234 6.10434 144.234 13.5601L144.234 13.5601C144.234 21.0158 138.26 27.0602 130.891 27.0602L13.578 27.0602C6.20861 27.0602 0.234315 21.0158 0.234315 13.5601Z" fill="#FFFFFF" fill-rule="evenodd" transform="matrix(-1 1.22465e-16 1.22465e-16 1 1371 1587)"/><path d="M106.713 0.0615338 213.213 187.062 183.063 187.062 106.713 53.0019 30.3636 187.062 0.212845 187.062Z" fill="#FFFFFF" fill-rule="evenodd" transform="matrix(-1 1.22465e-16 1.22465e-16 1 1408 1590)"/><path d="M0.212845 0.195664 213.213 0.195664 212.861 1.35454C195.372 43.5726 154.431 73.1959 106.713 73.1959 58.9955 73.1959 18.0536 43.5726 0.56494 1.35454Z" fill="#8FDF30" fill-rule="evenodd" transform="matrix(-1 1.22465e-16 1.22465e-16 1 1408 1798)"/></g></svg>